<svg width="40" height="40" viewBox="0 0 40 40" fill="none" xmlns="http://www.w3.org/2000/svg">
<path d="M37.319 5.74349L33.8563 9.20787C33.6298 9.43434 33.2425 9.27187 33.2458 8.95186L33.2573 7.28121C33.2573 7.08428 33.0998 6.9218 32.9028 6.92016L30.8629 6.9054C30.5462 6.90376 30.3886 6.51973 30.6118 6.2949L34.2469 2.65985C34.3847 2.522 34.3864 2.29881 34.2518 2.15767L32.2726 0.10956C32.1331 -0.0348568 31.9034 -0.0364933 31.7622 0.104643L22.0945 9.76256C21.8696 9.9874 22.0272 10.3714 22.3439 10.3731L29.4795 10.4289C29.6764 10.4289 29.8356 10.5913 29.8339 10.7899L29.7831 17.4659C29.7814 17.7859 30.1671 17.9484 30.3936 17.7219L39.848 8.26916C39.9875 8.12967 39.9875 7.90319 39.848 7.76205L37.8245 5.74185C37.685 5.60235 37.4585 5.60235 37.319 5.74185V5.74349Z" fill="#E83985"/>
<path d="M19.7392 27.8701L12.1128 20.2437C11.9731 20.104 11.9731 19.8775 12.1128 19.7377L19.7392 12.1113C19.879 11.9716 20.1055 11.9716 20.2452 12.1113L27.8716 19.7377C28.0113 19.8775 28.0113 20.104 27.8716 20.2437L20.2452 27.8701C20.1055 28.0098 19.879 28.0098 19.7392 27.8701Z" fill="#112242"/>
<path d="M2.66531 34.2397L6.12805 30.7753C6.35452 30.5489 6.74182 30.7113 6.73854 31.0313L6.72705 32.702C6.72705 32.8989 6.8846 33.0614 7.08153 33.063L9.12143 33.0778C9.43817 33.0794 9.59571 33.4635 9.37252 33.6883L5.73747 37.3234C5.59961 37.4612 5.59797 37.6844 5.73254 37.8255L7.71172 39.8736C7.85121 40.0181 8.08097 40.0197 8.2221 39.8786L17.8899 30.2206C18.1147 29.9958 17.9572 29.6118 17.6404 29.6101L10.5049 29.5543C10.308 29.5543 10.1488 29.3919 10.1504 29.1933L10.2013 22.5173C10.2029 22.1973 9.81726 22.0348 9.59079 22.2613L0.136359 31.714C-0.00313528 31.8535 -0.00313528 32.08 0.136359 32.2211L2.15984 34.2413C2.29934 34.3808 2.52581 34.3808 2.66531 34.2413V34.2397Z" fill="#E83985"/>
<path d="M34.2402 37.3184L30.7758 33.8557C30.5494 33.6292 30.7118 33.2419 31.0319 33.2452L32.7025 33.2567C32.8994 33.2567 33.0619 33.0991 33.0635 32.9022L33.0783 30.8623C33.08 30.5456 33.464 30.388 33.6888 30.6112L37.3239 34.2463C37.4617 34.3841 37.6849 34.3858 37.826 34.2512L39.8742 32.272C40.0186 32.1325 40.0202 31.9028 39.8791 31.7616L30.2211 22.0939C29.9963 21.869 29.6123 22.0266 29.6106 22.3433L29.5549 29.4789C29.5549 29.6758 29.3924 29.835 29.1938 29.8333L22.5178 29.7825C22.1978 29.7808 22.0353 30.1665 22.2618 30.393L31.7146 39.8474C31.854 39.9869 32.0805 39.9869 32.2217 39.8474L34.2419 37.8239C34.3814 37.6844 34.3814 37.4579 34.2419 37.3184H34.2402Z" fill="#E83985"/>
<path d="M39.956 14.4758V25.5074C39.956 25.8257 39.5703 25.9866 39.3455 25.7601L33.8297 20.2443C33.6902 20.1048 33.6902 19.8784 33.8297 19.7389L39.3455 14.2231C39.5703 13.9983 39.956 14.1575 39.956 14.4758Z" fill="#1BB8C2"/>
<path d="M0 14.4758V25.5074C0 25.8257 0.385661 25.9866 0.610493 25.7601L6.12626 20.2443C6.26576 20.1048 6.26576 19.8784 6.12626 19.7389L0.610493 14.2231C0.385661 13.9983 0 14.1575 0 14.4758Z" fill="#1BB8C2"/>
<path d="M25.5079 40H14.4764C14.158 40 13.9972 39.6143 14.2236 39.3895L19.7394 33.8737C19.8789 33.7343 20.1054 33.7343 20.2449 33.8737L25.7607 39.3895C25.9855 39.6143 25.8263 40 25.5079 40Z" fill="#1BB8C2"/>
<path d="M25.5079 0.0291524H14.4764C14.158 0.0291524 13.9972 0.414818 14.2236 0.63965L19.7394 6.15542C19.8789 6.29491 20.1054 6.29491 20.2449 6.15542L25.7607 0.63965C25.9855 0.414818 25.8263 0.0291524 25.5079 0.0291524Z" fill="#1BB8C2"/>
<path d="M5.74397 2.66313L9.20836 6.12587C9.43483 6.35235 9.27236 6.73964 8.95234 6.73636L7.28169 6.72487C7.08476 6.72487 6.92229 6.88242 6.92065 7.07936L6.90588 9.11925C6.90424 9.43599 6.52022 9.59353 6.29539 9.37034L2.66033 5.73529C2.52248 5.59743 2.29928 5.59579 2.15815 5.73036L0.110046 7.70954C-0.0343712 7.84903 -0.0360122 8.07878 0.105123 8.21992L9.76305 17.8877C9.98788 18.1125 10.3719 17.955 10.3735 17.6382L10.4293 10.5027C10.4293 10.3058 10.5918 10.1466 10.7904 10.1482L17.4664 10.1991C17.7864 10.2007 17.9489 9.81508 17.7224 9.58861L8.26964 0.134182C8.13015 -0.00531387 7.90368 -0.00531387 7.76254 0.134182L5.74233 2.15767C5.60284 2.29717 5.60284 2.52363 5.74233 2.66313H5.74397Z" fill="#E83985"/>
</svg>
