<svg width="58" height="22" viewBox="0 0 58 22" fill="none" xmlns="http://www.w3.org/2000/svg">
<g clip-path="url(#clip0_81_724)">
<path d="M10.4295 2.77C10.0787 3.16604 9.64543 3.48054 9.16019 3.69146C8.67495 3.90239 8.14944 4.00462 7.62052 3.991C7.58863 3.49953 7.66206 3.00692 7.83589 2.54612C8.00973 2.08531 8.27996 1.66695 8.62852 1.319C9.36504 0.55114 10.3587 0.0815656 11.4195 0C11.4527 0.504869 11.3819 1.01117 11.2116 1.48761C11.0413 1.96405 10.7752 2.40051 10.4295 2.77ZM11.4015 4.18C9.84952 4.098 8.52152 4.991 7.78952 4.991C7.04052 4.991 5.91652 4.221 4.68952 4.245C3.91154 4.25312 3.14801 4.45618 2.46878 4.83563C1.78956 5.21507 1.21632 5.75877 0.801518 6.417C-0.875482 9.064 0.364518 12.973 1.98752 15.129C2.78152 16.194 3.72652 17.366 4.97452 17.329C6.16052 17.288 6.62452 16.629 8.05152 16.629C9.47852 16.629 9.90652 17.329 11.1515 17.317C12.4445 17.292 13.2515 16.252 14.0515 15.186C14.6073 14.4415 15.0435 13.6149 15.3445 12.736C14.6506 12.5042 14.0409 12.0719 13.5926 11.4937C13.1444 10.9154 12.8776 10.2173 12.826 9.48749C12.7744 8.75767 12.9403 8.02895 13.3028 7.39342C13.6653 6.7579 14.2081 6.24411 14.8625 5.917C14.4483 5.39221 13.9235 4.96519 13.3255 4.66634C12.7274 4.3675 12.0709 4.20417 11.4025 4.188M20.3565 1.221V17.194H23.0525V11.736H26.7895C30.2055 11.736 32.5955 9.581 32.5955 6.466C32.5955 3.351 30.2415 1.221 26.8795 1.221H20.3525H20.3565ZM23.0525 3.3H26.1645C28.5095 3.3 29.8475 4.447 29.8475 6.464C29.8475 8.481 28.5095 9.644 26.1555 9.644H23.0525V3.3ZM37.5225 17.309C38.3051 17.3404 39.0825 17.169 39.7794 16.8114C40.4762 16.4538 41.0687 15.9221 41.4995 15.268H41.5525V17.186H44.0525V9.236C44.0525 6.936 42.0455 5.441 38.9605 5.441C36.0975 5.441 33.9755 6.949 33.8955 9.014H36.3305C36.4973 8.48638 36.8441 8.03407 37.3103 7.73599C37.7765 7.43791 38.3326 7.31298 38.8815 7.383C40.5315 7.383 41.4585 8.083 41.4585 9.391V10.276L38.0875 10.464C34.9575 10.636 33.2625 11.816 33.2625 13.864C33.2685 15.932 35.0165 17.309 37.5225 17.309ZM38.2535 15.416C36.8175 15.416 35.8995 14.777 35.8995 13.81C35.8995 12.802 36.7825 12.22 38.4675 12.13L41.4675 11.958V12.858C41.4635 14.35 40.0815 15.416 38.2525 15.416H38.2535ZM47.3945 21.53C50.0255 21.53 51.2645 20.604 52.3435 17.809L57.0785 5.6H54.3325L51.1525 15.031H51.0985L47.9295 5.6H45.1115L49.6775 17.23L49.4275 17.93C49.3196 18.4392 49.0281 18.8908 48.6085 19.1988C48.1889 19.5068 47.6706 19.6496 47.1525 19.6C46.9385 19.6 46.5285 19.575 46.3585 19.559V21.477C46.7027 21.5123 47.0485 21.53 47.3945 21.53Z" fill="white"/>
</g>
<defs>
<clipPath id="clip0_81_724">
<rect width="57.079" height="21.53" fill="white"/>
</clipPath>
</defs>
</svg>
