<svg width="72" height="24" viewBox="0 0 72 24" fill="none" xmlns="http://www.w3.org/2000/svg">
<g clip-path="url(#clip0_81_708)">
<g clip-path="url(#clip1_81_708)">
<mask id="mask0_81_708" style="mask-type:luminance" maskUnits="userSpaceOnUse" x="0" y="0" width="72" height="24">
<path d="M71.94 0H0V24H71.94V0Z" fill="white"/>
</mask>
<g mask="url(#mask0_81_708)">
<path d="M71.9402 5.04C71.8912 5.24 71.8453 5.44 71.7943 5.64C71.5828 6.5361 71.0585 7.32734 70.3157 7.87141C69.573 8.41548 68.6604 8.67667 67.7422 8.608C66.9725 8.59375 66.209 8.46638 65.4763 8.23C65.1927 8.19536 64.9052 8.21333 64.6282 8.283C64.2512 8.316 63.8752 8.383 63.4982 8.383C59.9596 8.39033 56.4206 8.39033 52.8813 8.383H52.4902L52.7422 6.717H57.1902C57.1622 6.751 57.1843 6.736 57.1843 6.722C57.1663 5.634 57.1543 4.547 57.1183 3.459C57.0958 3.25048 57.0373 3.04746 56.9453 2.859C56.8326 2.54111 56.6205 2.26799 56.3404 2.08012C56.0603 1.89225 55.7271 1.79963 55.3903 1.816C54.8003 1.816 54.2103 1.816 53.6213 1.816H53.2682C53.3462 1.268 53.4123 0.765 53.4963 0.265C53.5098 0.227477 53.5325 0.193967 53.5624 0.167572C53.5923 0.141177 53.6283 0.122751 53.6672 0.114C54.6653 0.0869954 55.6642 0.12039 56.6583 0.214C57.3811 0.334905 58.0448 0.688588 58.5482 1.22126C59.0516 1.75393 59.3673 2.43645 59.4473 3.165C59.5253 3.74848 59.566 4.33634 59.5693 4.925C59.5883 5.493 59.5693 6.061 59.5693 6.651C59.6753 6.659 59.7612 6.671 59.8472 6.671C61.1272 6.671 62.4063 6.664 63.6863 6.678C63.735 6.68682 63.785 6.68464 63.8327 6.67163C63.8804 6.65862 63.9247 6.6351 63.9622 6.6028C63.9996 6.57049 64.0294 6.53022 64.0493 6.48492C64.0692 6.43963 64.0788 6.39046 64.0773 6.341C64.0939 6.1819 64.1012 6.02196 64.0992 5.862C64.0992 4.792 64.0992 3.723 64.0992 2.653C64.0451 2.12259 64.1886 1.59086 64.5023 1.15976C64.816 0.728665 65.2779 0.42856 65.7993 0.317C66.2723 0.17 66.7703 0.103 67.2563 0H68.2762C68.3513 0.0243098 68.4278 0.0440132 68.5052 0.059C69.2744 0.142133 69.9992 0.460236 70.5811 0.970016C71.163 1.47979 71.5737 2.15649 71.7573 2.908C71.8253 3.156 71.8773 3.408 71.9363 3.66L71.9402 5.04ZM66.2972 2.309C66.3222 2.622 66.3603 2.887 66.3613 3.152C66.3683 4.16 66.3733 5.169 66.3613 6.178C66.3613 6.426 66.4463 6.517 66.6733 6.533C67.0733 6.56 67.4733 6.612 67.8663 6.62C68.2441 6.65599 68.6219 6.5513 68.9272 6.32599C69.2326 6.10068 69.4441 5.7706 69.5212 5.399C69.73 4.654 69.7324 3.86627 69.5283 3.12C69.4889 2.89566 69.3917 2.68546 69.2463 2.51011C69.101 2.33476 68.9124 2.20031 68.6993 2.12C67.9025 1.89364 67.051 1.96034 66.2993 2.308" fill="white"/>
<path d="M51.6565 0.145081L51.3995 1.82908H51.0445C49.5445 1.82908 48.0445 1.82908 46.5445 1.82908C46.3345 1.82593 46.1244 1.83561 45.9155 1.85808C45.7844 1.861 45.6554 1.89139 45.5367 1.94727C45.4181 2.00315 45.3125 2.0833 45.2267 2.18252C45.141 2.28175 45.077 2.39786 45.0389 2.52335C45.0008 2.64884 44.9894 2.78093 45.0055 2.91108C45.0016 3.0421 45.0243 3.17255 45.0724 3.29448C45.1205 3.41642 45.193 3.52727 45.2853 3.62028C45.3777 3.7133 45.488 3.78652 45.6096 3.83548C45.7312 3.88445 45.8615 3.90813 45.9925 3.90508C46.7515 3.92608 47.5125 3.90508 48.2715 3.92008C48.6106 3.92167 48.9488 3.95515 49.2815 4.02008C49.8725 4.1309 50.4038 4.45103 50.7779 4.92176C51.152 5.3925 51.344 5.98232 51.3185 6.58308C51.3163 6.9125 51.2767 7.2406 51.2005 7.56108C51.0863 8.01642 50.8345 8.42552 50.4795 8.73273C50.1246 9.03994 49.6836 9.23036 49.2165 9.27808C48.7167 9.37525 48.2087 9.42447 47.6995 9.42508C44.3705 9.43208 41.0405 9.43908 37.7105 9.40708C37.248 9.42699 36.7862 9.35275 36.3532 9.18886C35.9202 9.02497 35.525 8.77485 35.1915 8.45365C34.8581 8.13245 34.5934 7.74688 34.4134 7.32031C34.2334 6.89374 34.1419 6.43506 34.1445 5.97208C34.0326 4.95661 34.0928 3.92953 34.3225 2.93408C34.5131 2.15895 34.9607 1.47128 35.5923 0.983278C36.224 0.495279 37.0024 0.235764 37.8005 0.247081C38.8485 0.228081 39.9005 0.247081 40.9685 0.247081L40.7175 1.96108H39.5175C39.1275 1.96108 38.7375 1.95408 38.3475 1.97008C38.0236 1.96522 37.7061 2.05997 37.4378 2.24151C37.1695 2.42304 36.9635 2.68261 36.8475 2.98508C36.6924 3.35229 36.603 3.74392 36.5835 4.14208C36.5426 4.86888 36.5681 5.5979 36.6595 6.32008C36.6996 6.69561 36.8773 7.043 37.1583 7.29525C37.4394 7.5475 37.8039 7.68673 38.1815 7.68608C39.1575 7.74508 40.1395 7.72908 41.1185 7.73308C43.2685 7.74041 45.4182 7.74308 47.5675 7.74108C47.7272 7.74476 47.8869 7.73371 48.0445 7.70808C48.3313 7.6632 48.5904 7.51106 48.7692 7.28244C48.9481 7.05382 49.0335 6.76579 49.0081 6.47662C48.9827 6.18745 48.8484 5.91873 48.6324 5.72481C48.4164 5.53089 48.1348 5.42626 47.8445 5.43208C46.9055 5.41608 45.9635 5.43208 45.0265 5.38808C44.5315 5.38823 44.0494 5.22918 43.6517 4.93441C43.2539 4.63964 42.9615 4.22478 42.8175 3.75108C42.6424 3.24693 42.6225 2.70181 42.7605 2.18623C42.8984 1.67066 43.188 1.20834 43.5915 0.859081C44.2212 0.385216 44.9895 0.132155 45.7775 0.139081C47.6965 0.104081 49.6165 0.120081 51.5365 0.117081C51.5763 0.123022 51.6155 0.132732 51.6535 0.146081" fill="white"/>
<path d="M71.938 23.9999C71.192 23.8649 70.448 23.7169 69.698 23.5999C69.4805 23.5848 69.262 23.605 69.051 23.6599C68.1548 23.8761 67.2215 23.8881 66.32 23.6949C65.8248 23.5942 65.3802 23.3238 65.063 22.9304C64.7457 22.537 64.5756 22.0453 64.582 21.5399C64.5213 21.0301 64.651 20.5157 64.9463 20.0956C65.2416 19.6756 65.6817 19.3794 66.182 19.2639C66.85 19.1059 67.5307 19.0078 68.216 18.9709C68.68 18.9279 69.151 18.9629 69.616 18.9629C69.84 18.0119 69.402 17.4189 68.457 17.4019C67.4263 17.4076 66.4047 17.5948 65.439 17.9549C65.346 17.9869 65.252 18.0139 65.129 18.0549L64.88 16.3689C66.4415 15.7292 68.1428 15.5075 69.816 15.7259C70.3686 15.7921 70.8798 16.0517 71.2593 16.4588C71.6387 16.8659 71.8618 17.3941 71.889 17.9499C71.9025 18.0278 71.9203 18.1049 71.9421 18.1809L71.938 23.9999ZM68.785 20.3419L68.777 20.3049C68.3436 20.3408 67.913 20.4053 67.488 20.4979C67.2852 20.5634 67.1134 20.7006 67.0046 20.8838C66.8957 21.067 66.8575 21.2836 66.897 21.4929C66.8978 21.6861 66.9708 21.8719 67.1016 22.014C67.2324 22.1562 67.4116 22.2442 67.604 22.2609C68.057 22.2965 68.5126 22.2716 68.959 22.1869C69.701 22.0549 69.701 22.0289 69.695 21.2679C69.695 20.9729 69.769 20.5839 69.615 20.4129C69.479 20.2619 69.073 20.3559 68.786 20.3419" fill="white"/>
<path d="M45.6964 23.7381H43.3434V23.3701C43.3434 21.8701 43.3434 20.3701 43.3434 18.8701C43.3465 18.7102 43.3401 18.5502 43.3244 18.3911C43.3117 18.1836 43.2248 17.9876 43.0796 17.8389C42.9344 17.6902 42.7405 17.5987 42.5334 17.5811C42.0259 17.5191 41.5113 17.6074 41.0534 17.8351C41.0694 18.4951 41.0924 19.1191 41.0964 19.7421C41.1034 20.9621 41.0964 22.1821 41.0964 23.4021V23.7391H38.7484V23.3941C38.7484 21.8941 38.7344 20.3941 38.7484 18.8941C38.7624 17.7261 38.2394 17.4231 37.1484 17.6151C36.4924 17.7301 36.4954 17.7471 36.4954 18.4031V23.7291H34.1074V23.3681C34.1074 21.4281 34.1074 19.4881 34.1074 17.5481C34.1074 16.5641 34.3574 16.2321 35.3074 15.9711C36.4674 15.6107 37.696 15.5292 38.8934 15.7331C39.2229 15.8096 39.5407 15.9296 39.8384 16.0901C39.9029 16.1313 39.9768 16.1556 40.0532 16.1606C40.1296 16.1657 40.206 16.1514 40.2754 16.1191C41.3981 15.617 42.6549 15.499 43.8514 15.7831C44.3507 15.8732 44.8029 16.1348 45.1299 16.5228C45.4569 16.9108 45.6381 17.4007 45.6424 17.9081C45.6974 19.4461 45.6794 20.9871 45.6904 22.5261C45.6904 22.9261 45.6904 23.3261 45.6904 23.7401" fill="white"/>
<path d="M60.8802 15.965V15.615C60.8802 14.636 60.8802 13.656 60.8802 12.677C60.8802 12.52 60.9002 12.412 61.0862 12.383C61.7952 12.269 62.5022 12.146 63.2552 12.019V12.356C63.2552 15.574 63.2552 18.7924 63.2552 22.011C63.2552 22.933 63.0553 23.211 62.1753 23.484C61.0433 23.8343 59.8468 23.9239 58.6753 23.746C57.863 23.6364 57.1164 23.2408 56.5695 22.6303C56.0226 22.0199 55.7112 21.2344 55.6913 20.415C55.6166 19.6475 55.6724 18.8729 55.8562 18.124C55.9976 17.425 56.3794 16.7977 56.9353 16.351C57.4913 15.9043 58.1862 15.6665 58.8993 15.679C59.4365 15.7011 59.9714 15.7636 60.4992 15.866C60.6291 15.8919 60.7573 15.9253 60.8832 15.966M60.8832 19.8V18.632C60.8832 17.561 60.8833 17.561 59.8003 17.465C59.4298 17.4039 59.0499 17.4885 58.7405 17.7012C58.431 17.9139 58.2158 18.2382 58.1402 18.606C57.9436 19.3434 57.9453 20.1196 58.1452 20.856C58.2184 21.229 58.4276 21.5615 58.7322 21.789C59.0367 22.0164 59.4148 22.1227 59.7932 22.087C60.0512 22.087 60.3072 22.025 60.5652 22.005C60.8232 21.985 60.8983 21.885 60.8893 21.626C60.8673 21.018 60.8822 20.408 60.8822 19.799" fill="white"/>
<path d="M52.0737 18.97C52.1517 17.77 51.7807 17.37 50.6367 17.406C49.6968 17.4469 48.7686 17.6317 47.8847 17.954C47.7917 17.986 47.6967 18.014 47.5597 18.054C47.4827 17.518 47.4047 16.999 47.3407 16.478C47.3465 16.4434 47.3608 16.4108 47.3823 16.3831C47.4037 16.3553 47.4317 16.3333 47.4637 16.319C48.7295 15.8456 50.0713 15.6083 51.4227 15.619C51.6325 15.6291 51.8416 15.6518 52.0487 15.687C52.3793 15.706 52.7025 15.7919 52.9989 15.9396C53.2953 16.0873 53.5585 16.2936 53.7728 16.5461C53.987 16.7985 54.1477 17.0919 54.2452 17.4084C54.3426 17.7248 54.3748 18.0578 54.3397 18.387C54.3537 20.187 54.3397 21.987 54.3397 23.787C54.3397 23.846 54.3337 23.905 54.3287 23.999C54.0647 23.954 53.8107 23.928 53.5657 23.866C52.6205 23.6115 51.6287 23.5834 50.6707 23.784C49.9609 23.9331 49.2237 23.8843 48.5397 23.643C48.1053 23.4849 47.7282 23.2007 47.4564 22.8268C47.1846 22.453 47.0306 22.0065 47.0142 21.5446C46.9977 21.0826 47.1195 20.6263 47.3641 20.2341C47.6086 19.8419 47.9647 19.5316 48.3867 19.343C49.0326 19.0963 49.7194 18.9741 50.4107 18.983C50.9577 18.97 51.5057 18.983 52.0697 18.983M52.1187 20.416C51.4337 20.416 50.8027 20.375 50.1807 20.428C50.0546 20.4358 49.9314 20.4693 49.8187 20.5263C49.706 20.5834 49.6062 20.6628 49.5252 20.7598C49.4442 20.8568 49.3839 20.9692 49.3479 21.0903C49.3119 21.2114 49.3009 21.3385 49.3157 21.464C49.3168 21.5855 49.3433 21.7053 49.3936 21.8159C49.4438 21.9265 49.5166 22.0254 49.6072 22.1062C49.6979 22.187 49.8045 22.2479 49.9202 22.2851C50.0358 22.3223 50.1579 22.3348 50.2787 22.322C50.8509 22.2678 51.4188 22.1756 51.9787 22.046C52.0118 22.0321 52.0409 22.0103 52.0634 21.9823C52.0859 21.9544 52.1011 21.9213 52.1077 21.886C52.1177 21.398 52.1137 20.91 52.1137 20.417" fill="white"/>
<path d="M30.42 0H0V10.08H30.42V0Z" fill="#008BCF"/>
<path d="M30.42 13.741H0V23.821H30.42V13.741Z" fill="#80AA2C"/>
</g>
</g>
</g>
<defs>
<clipPath id="clip0_81_708">
<rect width="71.94" height="24" fill="white"/>
</clipPath>
<clipPath id="clip1_81_708">
<rect width="71.94" height="24" fill="white"/>
</clipPath>
</defs>
</svg>
