<svg width="37" height="25" viewBox="0 0 37 25" fill="none" xmlns="http://www.w3.org/2000/svg">
<g clip-path="url(#clip0_71_151)">
<g clip-path="url(#clip1_71_151)">
<path d="M33 0H4C1.79086 0 0 1.79086 0 4V21C0 23.2091 1.79086 25 4 25H33C35.2091 25 37 23.2091 37 21V4C37 1.79086 35.2091 0 33 0Z" fill="#DFE3E8"/>
<path d="M14.7051 6.00098H22.7041V19.068H14.7051V6.00098Z" fill="#F26122"/>
<path d="M15.5668 12.5349C15.5603 11.2796 15.839 10.0391 16.3819 8.90724C16.9248 7.77534 17.7177 6.78156 18.7008 6.00092C17.4748 5.03665 16.0021 4.43684 14.4512 4.27006C12.9003 4.10329 11.3338 4.37627 9.93073 5.05781C8.52767 5.73934 7.34469 6.80193 6.51705 8.12408C5.6894 9.44623 5.25049 10.9746 5.25049 12.5344C5.25049 14.0942 5.6894 15.6226 6.51705 16.9448C7.34469 18.2669 8.52767 19.3295 9.93073 20.011C11.3338 20.6926 12.9003 20.9655 14.4512 20.7988C16.0021 20.632 17.4748 20.0322 18.7008 19.0679C17.7179 18.2874 16.925 17.2938 16.3821 16.162C15.8392 15.0303 15.5604 13.7901 15.5668 12.5349Z" fill="#EA1D25"/>
<path d="M31.58 17.6821H31.525V17.3601H31.603L31.703 17.5871L31.799 17.3601H31.878V17.6811H31.823V17.4381L31.737 17.6501H31.674L31.58 17.4381V17.6821ZM31.345 17.6821H31.298V17.4151H31.188V17.3601H31.462V17.4151H31.345V17.6821Z" fill="#F69E1E"/>
<path d="M32.1442 12.535C32.143 14.0935 31.7037 15.6203 30.8764 16.9411C30.049 18.2619 28.8671 19.3234 27.4653 20.0047C26.0636 20.6859 24.4985 20.9593 22.9489 20.7937C21.3992 20.628 19.9273 20.0301 18.7012 19.068C20.4318 17.7052 21.5507 15.7112 21.8121 13.524C22.0734 11.3367 21.4559 9.13522 20.0952 7.403C19.6891 6.88081 19.221 6.41001 18.7012 6.001C19.9274 5.03888 21.3993 4.4409 22.9491 4.27532C24.4989 4.10973 26.064 4.38322 27.4658 5.06456C28.8675 5.74589 30.0495 6.80763 30.8768 8.12856C31.704 9.4495 32.1432 10.9764 32.1442 12.535Z" fill="#F69E1E"/>
</g>
</g>
<defs>
<clipPath id="clip0_71_151">
<rect width="37" height="25" fill="white"/>
</clipPath>
<clipPath id="clip1_71_151">
<rect width="37" height="25" fill="white"/>
</clipPath>
</defs>
</svg>
