<svg width="70" height="30" viewBox="0 0 70 30" fill="none" xmlns="http://www.w3.org/2000/svg">
<g clip-path="url(#clip0_81_677)">
<path d="M64.5787 28.9418H5.42125C2.43046 28.9418 0 26.5114 0 23.5136V6.47936C0 3.48856 2.43046 1.05811 5.42125 1.05811H64.5787C67.5765 1.05811 70 3.48856 70 6.47936V23.5136C70 26.5114 67.5695 28.9418 64.5787 28.9418Z" fill="url(#paint0_linear_81_677)"/>
<path d="M60.5795 9.9043L56.8392 24.1999L56.8252 24.2279H59.7459L63.5002 9.9043H60.5795Z" fill="white"/>
<path d="M14.2536 18.0362C13.8684 18.2393 13.3431 18.3584 12.8458 18.3584C11.7951 18.3584 11.1998 18.1903 11.1367 17.3428V17.2868C11.1367 17.2518 11.1297 17.2167 11.1297 17.1817V14.7162L11.1367 14.4221V12.678H11.1297V11.9356L11.1367 11.6414V9.96038L8.53118 10.3036C10.2962 9.96038 11.3048 8.56654 11.3048 7.17971V6.3252H8.37709V10.3246L8.20898 10.3736V17.7841C8.30704 19.8643 9.67987 21.1041 11.9282 21.1041C12.7267 21.1041 13.6022 20.922 14.2746 20.6208L14.2886 20.6138V18.0152L14.2536 18.0362Z" fill="white"/>
<path d="M14.7159 9.36499L6.5 10.6328V12.713L14.7159 11.4452V9.36499Z" fill="white"/>
<path d="M14.7159 12.4119L6.5 13.6796V15.6688L14.7159 14.4011V12.4119Z" fill="white"/>
<path d="M23.9264 13.3715C23.8074 11.0601 22.3645 9.68726 20.0111 9.68726C18.6593 9.68726 17.5386 10.2126 16.7822 11.2002C16.0257 12.1878 15.6265 13.6376 15.6265 15.3957C15.6265 17.1537 16.0257 18.6106 16.7822 19.5912C17.5386 20.5788 18.6593 21.1041 20.0111 21.1041C22.3645 21.1041 23.8144 19.7243 23.9264 17.3989V20.887H26.8542V9.9254L23.9264 10.3737M24.0805 15.3957C24.0805 17.4479 23.0019 18.7717 21.3419 18.7717C19.6259 18.7717 18.6033 17.5109 18.6033 15.3957C18.6033 13.2734 19.6259 11.9986 21.3419 11.9986C22.1754 11.9986 22.8758 12.3208 23.3591 12.9372C23.8284 13.5466 24.0805 14.3941 24.0805 15.3957Z" fill="white"/>
<path d="M35.3924 9.68729C33.032 9.68729 31.5891 11.0601 31.4771 13.3785V6.73853L28.5493 7.18679V20.887H31.4771V17.3989C31.5891 19.7243 33.039 21.1041 35.3924 21.1041C38.1521 21.1041 39.7981 18.9679 39.7981 15.3957C39.7981 11.8236 38.1521 9.68729 35.3924 9.68729ZM34.0616 18.7717C32.3946 18.7717 31.323 17.448 31.323 15.3957C31.323 14.3941 31.5751 13.5466 32.0444 12.9442C32.5277 12.3279 33.2281 12.0057 34.0616 12.0057C35.7777 12.0057 36.8003 13.2734 36.8003 15.4027C36.8003 17.511 35.7777 18.7717 34.0616 18.7717Z" fill="white"/>
<path d="M47.7621 9.68729C45.4016 9.68729 43.9588 11.0601 43.8467 13.3785V6.73853L40.9189 7.18679V20.887H43.8467V17.3989C43.9588 19.7243 45.4086 21.1041 47.7621 21.1041C50.5217 21.1041 52.1677 18.9679 52.1677 15.3957C52.1677 11.8236 50.5217 9.68729 47.7621 9.68729ZM46.4383 18.7717C44.7713 18.7717 43.6996 17.448 43.6996 15.3957C43.6996 14.3941 43.9518 13.5466 44.421 12.9442C44.9043 12.3279 45.6048 12.0057 46.4383 12.0057C48.1543 12.0057 49.1769 13.2734 49.1769 15.4027C49.1769 17.511 48.1543 18.7717 46.4383 18.7717Z" fill="white"/>
<path d="M52.1743 9.9043H55.2982L57.8407 20.8729H55.039L52.1743 9.9043Z" fill="white"/>
</g>
<defs>
<linearGradient id="paint0_linear_81_677" x1="0" y1="14.9989" x2="70.0007" y2="14.9989" gradientUnits="userSpaceOnUse">
<stop stop-color="#3BFF9D"/>
<stop offset="1" stop-color="#3BFFC8"/>
</linearGradient>
<clipPath id="clip0_81_677">
<rect width="70" height="30" fill="white"/>
</clipPath>
</defs>
</svg>
