<svg width="81" height="27" viewBox="0 0 81 27" fill="none" xmlns="http://www.w3.org/2000/svg">
<g clip-path="url(#clip0_81_701)">
<mask id="mask0_81_701" style="mask-type:luminance" maskUnits="userSpaceOnUse" x="0" y="2" width="81" height="23">
<path d="M0 2.04736H80.792V24.4898H0V2.04736Z" fill="white"/>
</mask>
<g mask="url(#mask0_81_701)">
<path fill-rule="evenodd" clip-rule="evenodd" d="M8.64835 7.03892C8.93027 6.4012 9.22309 5.76834 9.52667 5.14064C9.52667 5.14064 9.81078 4.62438 10.0237 4.64282C10.0954 4.64657 10.1657 4.6648 10.2303 4.69642C10.2949 4.72803 10.3523 4.77238 10.3993 4.8268C10.4463 4.88121 10.4818 4.94456 10.5036 5.01305C10.5255 5.08153 10.5333 5.15372 10.5265 5.22529L10.5341 6.37347C10.55 8.74611 10.5659 11.1187 10.5265 13.4914C10.4621 14.1423 10.6243 14.7954 10.9858 15.3405C11.3472 15.8856 11.8857 16.2893 12.5103 16.4834C14.0628 17.0457 15.6824 17.4018 17.3276 17.5427C24.2563 18.1534 31.2384 17.5637 37.9665 15.7995C38.1441 15.7524 38.3009 15.6475 38.4123 15.5014C38.5237 15.3552 38.5833 15.1762 38.5816 14.9924C38.6831 14.5708 38.8785 14.1776 39.1532 13.8421C39.4279 13.5066 39.7749 13.2374 40.1681 13.0547C40.8743 12.6469 41.677 12.436 42.4925 12.444C43.3079 12.452 44.1063 12.6785 44.8044 13.1C45.3831 13.5523 45.8471 14.1346 46.1588 14.7996L46.2175 14.9019C46.8041 15.9428 48.9094 15.9604 50.0568 15.8707C50.6744 15.823 51.0918 15.7584 51.5544 15.688C52.0327 15.6126 52.5126 15.5492 52.9943 15.4978C52.4189 14.9077 51.8284 14.3326 51.2234 13.773C51.097 13.6842 51.0093 13.5506 50.9781 13.3993C50.947 13.2481 50.9747 13.0907 51.0558 12.9592C51.2008 12.6701 51.329 12.3725 51.4564 12.0775C51.5921 11.7624 51.7288 11.4473 51.8846 11.1422C51.9835 10.9478 52.2257 10.7056 52.3875 10.6955C52.529 10.6642 52.677 10.6807 52.8082 10.7424C52.9393 10.8041 53.0463 10.9076 53.1124 11.0366L53.1476 11.0886C54.0121 12.3896 54.3602 13.9663 54.124 15.5103C54.1123 15.6165 54.1025 15.7229 54.0947 15.8297C54.0765 16.1738 54.0148 16.5143 53.9111 16.8429C53.7744 17.3045 53.5132 17.7194 53.1562 18.0423C52.7991 18.3652 52.3601 18.5835 51.8872 18.6733L51.3499 18.7948C50.7041 18.9576 50.0449 19.0619 49.3804 19.1066C48.166 19.2155 47.7721 18.6515 47.0673 17.5402C46.9039 18.0431 46.2627 18.23 45.5403 18.4428L45.4255 18.4764C43.2296 18.855 40.9865 18.8717 38.7853 18.5258C38.7037 18.5051 38.6227 18.4833 38.5422 18.4604C38.1601 18.354 38.1098 18.3397 37.5868 18.628C36.0506 19.1781 34.47 19.5954 32.8625 19.8751C29.5808 20.5072 26.2425 20.7979 22.9009 20.7426C20.8828 20.728 18.8661 20.6643 16.8507 20.5515C15.2554 20.4874 13.686 20.1255 12.2236 19.4846C11.2477 19.0827 10.4086 18.4074 9.80718 17.5401C9.20579 16.6727 8.8677 15.6501 8.83357 14.5952C8.69025 12.6483 8.60309 10.6964 8.51677 8.74527L8.47905 7.89042C8.47279 7.5989 8.52998 7.3095 8.64667 7.04227L8.64835 7.03892ZM39.5404 16.5228L44.8883 16.5873C44.8883 16.5873 45.2444 14.2147 42.1125 14.3244C41.4999 14.3512 40.9138 14.5821 40.4477 14.9805C39.9816 15.3789 39.6622 15.9218 39.5404 16.5228ZM52.6238 6.13043L52.6699 6.17652C52.8203 6.32653 52.9395 6.50472 53.0209 6.70088C53.1022 6.89703 53.1441 7.10731 53.1441 7.31968C53.1441 7.53205 53.1022 7.74233 53.0209 7.93848C52.9395 8.13464 52.8203 8.31283 52.6699 8.46284C52.5222 8.61695 52.3448 8.73957 52.1484 8.82335C51.952 8.90712 51.7407 8.9503 51.5272 8.9503C51.3137 8.9503 51.1024 8.90712 50.906 8.82335C50.7096 8.73957 50.5322 8.61695 50.3845 8.46284L50.3375 8.4159C50.1866 8.26592 50.0667 8.08762 49.9848 7.89121C49.9029 7.6948 49.8606 7.48416 49.8603 7.27136C49.86 7.05857 49.9017 6.8478 49.983 6.65116C50.0644 6.45452 50.1837 6.27587 50.3342 6.12545C50.4848 5.97504 50.6635 5.85582 50.8602 5.77464C51.0569 5.69345 51.2677 5.6519 51.4805 5.65236C51.6933 5.65283 51.9039 5.69529 52.1002 5.77733C52.2966 5.85937 52.474 5.97936 52.6238 6.13043ZM5.09568 11.1824C5.1593 11.0757 5.24584 10.9845 5.34904 10.9154C5.45225 10.8463 5.56953 10.8009 5.6924 10.7827C5.81674 10.8035 5.93481 10.852 6.03794 10.9245C6.14106 10.997 6.22661 11.0918 6.28828 11.2017C8.23601 14.9916 7.76919 18.6565 5.64882 22.2134C5.37555 22.6614 5.08879 23.1011 4.78894 23.5317C4.64646 23.7404 4.50315 23.9508 4.35984 24.167C3.99946 24.0201 3.63908 23.8739 3.2787 23.7287C2.27886 23.3247 1.30164 22.93 0.336998 22.5101C0.213129 22.4707 0.109665 22.3843 0.0488558 22.2694C-0.0119539 22.1545 -0.0252529 22.0203 0.0118185 21.8958C0.0327707 21.7608 0.278331 21.5605 0.435893 21.496C0.854938 21.3326 1.28404 21.1851 1.71147 21.0376C2.44116 20.7999 3.15714 20.5221 3.85614 20.2053C4.62227 19.8271 5.3215 19.3263 5.92623 18.7228C6.30221 18.3865 6.5371 17.9205 6.58373 17.4182C6.63037 16.9159 6.4853 16.4146 6.17766 16.0149C5.701 15.3351 5.17553 14.6908 4.6054 14.0873L4.37995 13.8358C4.26363 13.7459 4.18447 13.6164 4.15758 13.4718C4.13068 13.3273 4.15793 13.1779 4.23412 13.0522C4.37576 12.769 4.50147 12.4773 4.62719 12.1865C4.77302 11.8512 4.91884 11.5093 5.09065 11.1808L5.09568 11.1824ZM45.9484 6.2377C45.7882 6.39704 45.6614 6.58682 45.5755 6.79587L48.0277 8.92127C48.1526 8.8487 48.2676 8.76025 48.3697 8.65811L48.4191 8.60866C48.5827 8.45219 48.7128 8.26421 48.8017 8.05608C48.8906 7.84794 48.9365 7.62395 48.9365 7.39762C48.9365 7.17129 48.8906 6.94731 48.8017 6.73917C48.7128 6.53103 48.5827 6.34306 48.4191 6.18658C48.2601 6.02749 48.0713 5.90129 47.8635 5.81518C47.6557 5.72908 47.433 5.68476 47.2081 5.68476C46.9832 5.68476 46.7604 5.72908 46.5526 5.81518C46.3448 5.90129 46.1561 6.02749 45.997 6.18658L45.9484 6.2377ZM2.20007 5.39961C2.20697 5.32766 2.19912 5.25506 2.17699 5.18625C2.15486 5.11744 2.11893 5.05387 2.07139 4.99942C2.02385 4.94498 1.9657 4.9008 1.9005 4.86961C1.8353 4.83841 1.76442 4.82084 1.69219 4.81798C1.47513 4.80038 1.1952 5.31497 1.1952 5.31497C1.1952 5.31497 0.589263 6.5721 0.316884 7.2124C0.201414 7.47905 0.145088 7.76754 0.15178 8.05804L0.188656 8.88188C0.225532 9.70545 0.263805 10.5293 0.303474 11.3534C0.376109 12.9139 0.449861 14.4756 0.52473 16.0383C0.553225 16.62 0.583397 17.2016 0.614406 17.7883L0.671396 18.9356H1.55977C1.6285 18.5945 1.71231 18.2543 1.79611 17.9148C2.00513 17.1879 2.1344 16.4404 2.18164 15.6855C2.21181 14.2281 2.21097 7.36829 2.20091 5.39626L2.20007 5.39961ZM75.8222 18.7018C76.8053 18.7018 77.7663 18.4103 78.5838 17.8641C79.4012 17.3179 80.0383 16.5416 80.4146 15.6333C80.7908 14.725 80.8892 13.7256 80.6974 12.7613C80.5056 11.7971 80.0322 10.9114 79.337 10.2162C78.6419 9.52108 77.7562 9.04767 76.7919 8.85587C75.8277 8.66407 74.8283 8.76251 73.92 9.13873C73.0117 9.51495 72.2354 10.1521 71.6892 10.9695C71.143 11.7869 70.8515 12.748 70.8515 13.7311C70.8515 14.3838 70.9801 15.0302 71.2299 15.6333C71.4797 16.2364 71.8458 16.7843 72.3074 17.2459C73.2396 18.1781 74.5039 18.7018 75.8222 18.7018ZM61.014 10.4407C60.5647 10.9094 60.2129 11.4626 59.9789 12.0683L67.1538 18.0188C67.508 17.802 67.8335 17.5416 68.1227 17.2435L68.2618 17.0969C68.7204 16.6365 69.0813 16.0882 69.3227 15.4848C69.5642 14.8815 69.6812 14.2356 69.6668 13.5859C69.6524 12.9362 69.5069 12.2962 69.2389 11.7041C68.971 11.1121 68.5862 10.5803 68.1076 10.1407C67.6411 9.69356 67.0911 9.34273 66.489 9.10827C65.8868 8.8738 65.2444 8.76029 64.5984 8.77422C63.9524 8.78815 63.3155 8.92926 62.724 9.18946C62.1326 9.44967 61.5982 9.82388 61.1514 10.2907L61.0123 10.4365L61.014 10.4407Z" fill="white"/>
</g>
</g>
<defs>
<clipPath id="clip0_81_701">
<rect width="80.792" height="26.118" fill="white"/>
</clipPath>
</defs>
</svg>
